<?xml version="1.0" encoding="iso-8859-1"?>
<!-- Uploaded to: SVG Repo, www.svgrepo.com, Generator: SVG Repo Mixer Tools -->
<!DOCTYPE svg PUBLIC "-//W3C//DTD SVG 1.1//EN" "http://www.w3.org/Graphics/SVG/1.1/DTD/svg11.dtd">
<svg fill="#000000" version="1.1" id="Capa_1" xmlns="http://www.w3.org/2000/svg" xmlns:xlink="http://www.w3.org/1999/xlink" 
	 width="800px" height="800px" viewBox="0 0 97.823 97.823"
	 xml:space="preserve">
<g>
	<path d="M97.799,59.148c0.012-0.07,0.025-0.142,0.021-0.216c-0.014-0.385-0.242-0.729-0.59-0.896l-11.84-5.631V30.472
		c0-0.414-0.248-0.788-0.627-0.95l-16.801-7.219V10.964c0-0.058-0.015-0.113-0.021-0.168c0.012-0.071,0.023-0.142,0.021-0.216
		c-0.017-0.385-0.242-0.73-0.591-0.896L50.33,1.579c-0.281-0.134-0.607-0.134-0.889,0L32.398,9.684
		c-0.016,0.007-0.025,0.019-0.039,0.025c-0.014,0.008-0.031,0.011-0.045,0.019c-0.029,0.019-0.053,0.043-0.082,0.064
		c-0.033,0.024-0.068,0.049-0.098,0.078c-0.037,0.034-0.066,0.073-0.098,0.111c-0.025,0.032-0.053,0.063-0.074,0.099
		c-0.027,0.043-0.045,0.09-0.066,0.138c-0.016,0.036-0.033,0.071-0.045,0.109c-0.016,0.053-0.02,0.106-0.027,0.162
		c-0.004,0.031-0.016,0.062-0.016,0.094c0,0.006,0.002,0.011,0.002,0.017s-0.004,0.013-0.004,0.02v11.464l-17.645,7.436
		c-0.385,0.162-0.635,0.538-0.635,0.954v21.413L0.59,58.038c-0.014,0.007-0.023,0.018-0.037,0.024
		c-0.016,0.009-0.031,0.012-0.045,0.02c-0.031,0.018-0.055,0.043-0.082,0.063c-0.035,0.025-0.068,0.05-0.1,0.078
		c-0.035,0.034-0.066,0.073-0.098,0.112c-0.025,0.032-0.053,0.062-0.072,0.098c-0.027,0.044-0.047,0.09-0.066,0.139
		c-0.016,0.035-0.033,0.07-0.045,0.108c-0.016,0.054-0.021,0.107-0.029,0.162C0.012,58.875,0.002,58.905,0,58.937
		c0,0.007,0.002,0.012,0.002,0.018S0,58.966,0,58.972v20.265c0,0.371,0.199,0.715,0.523,0.898l16.904,9.614
		c0.158,0.09,0.336,0.136,0.512,0.136c0.047,0,0.092-0.012,0.139-0.018c0.045,0.006,0.092,0.018,0.137,0.018
		c0.178,0,0.354-0.045,0.514-0.136l7.756-4.411c0.084,0.088,0.186,0.165,0.305,0.22l23.12,10.691
		c0.139,0.063,0.287,0.096,0.436,0.096c0.152,0,0.308-0.034,0.447-0.103l21.508-10.356l6.793,3.863
		c0.158,0.09,0.334,0.136,0.512,0.136c0.048,0,0.093-0.012,0.14-0.018c0.045,0.006,0.09,0.018,0.138,0.018
		c0.178,0,0.354-0.045,0.512-0.136l16.906-9.614c0.321-0.184,0.522-0.527,0.522-0.898V59.317
		C97.822,59.26,97.809,59.204,97.799,59.148z M65.895,22.619c-0.08,0.229-0.076,0.467,0,0.681v6.98l-14.836,8.438V21.18
		l14.836-8.438V22.619z M33.877,12.387l14.836,8.338v17.992l-14.836-8.438V12.387z M18.416,67.323L3.307,59.038l14.771-7.025
		l14.811,7.043L18.416,67.323z M19.25,69.533l14.836-8.438v17.538L19.25,87.071V69.533z M50.336,94.166L28.619,84.124l7.014-3.99
		c0.322-0.184,0.523-0.527,0.523-0.898V59.317c0-0.059-0.014-0.113-0.023-0.169c0.014-0.07,0.025-0.142,0.021-0.216
		c-0.014-0.385-0.24-0.729-0.59-0.896l-17.043-8.105c-0.279-0.134-0.607-0.134-0.889,0l-2.035,0.968v-19.74l16.209-6.831v6.554
		c0,0.372,0.201,0.715,0.523,0.899l16.904,9.613c0.16,0.091,0.336,0.137,0.512,0.137c0.047,0,0.092-0.013,0.139-0.02
		c0.047,0.007,0.092,0.02,0.139,0.02c0.176,0,0.354-0.045,0.512-0.137l16.904-9.613c0.324-0.185,0.522-0.527,0.522-0.899v-6.328
		l15.357,6.601v20.269l-3.134-1.49c-0.28-0.134-0.606-0.134-0.889,0l-17.043,8.105c-0.014,0.007-0.023,0.018-0.037,0.024
		c-0.016,0.009-0.031,0.012-0.045,0.02c-0.031,0.018-0.055,0.043-0.082,0.063c-0.035,0.025-0.068,0.05-0.1,0.078
		c-0.035,0.034-0.066,0.073-0.098,0.112c-0.025,0.032-0.053,0.062-0.072,0.098c-0.027,0.044-0.047,0.09-0.066,0.139
		c-0.016,0.036-0.033,0.07-0.045,0.108c-0.016,0.054-0.021,0.107-0.029,0.162c-0.004,0.032-0.014,0.062-0.016,0.094
		c0,0.007,0.002,0.012,0.002,0.018s-0.002,0.012-0.002,0.018v20.265c0,0.372,0.199,0.715,0.523,0.898l7.924,4.508L50.336,94.166z
		 M78.57,87.071l-5.088-2.896c-0.002-0.002-0.002-0.004-0.004-0.007c-0.193-0.399-0.607-0.616-1.025-0.578l-8.719-4.958V60.741
		l14.836,8.338V87.071z M80.082,67.323l-15.109-8.285l14.771-7.025l14.811,7.043L80.082,67.323z"/>
</g>
</svg>