<?xml version="1.0" encoding="iso-8859-1"?>
<!-- Uploaded to: SVG Repo, www.svgrepo.com, Generator: SVG Repo Mixer Tools -->
<!DOCTYPE svg PUBLIC "-//W3C//DTD SVG 1.1//EN" "http://www.w3.org/Graphics/SVG/1.1/DTD/svg11.dtd">
<svg fill="#000000" version="1.1" id="Capa_1" xmlns="http://www.w3.org/2000/svg" xmlns:xlink="http://www.w3.org/1999/xlink" 
	 width="800px" height="800px" viewBox="0 0 252.934 252.934"
	 xml:space="preserve">
<g>
	<path d="M199.592,0.703c-2.719,0.21-66.934,5.35-91.508,22.683c-9.091,6.404-14.537,15.483-15.368,25.573
		c-0.78,9.575,2.778,18.819,9.983,26.104v26.271c-0.363-0.254-0.656-0.541-1.049-0.769c-12.492-7.471-44.576-8.432-44.576-8.432
		s10.796,25.597,23.3,33.059c6.93,4.128,16.089,3.614,22.325-0.739v13.657H59.317v29.341c-8.709,2.565-15.167,11.101-15.167,21.302
		c0,12.235,9.218,22.189,20.555,22.189s20.555-9.954,20.555-22.189c0-9.682-5.816-17.85-13.849-20.865v-17.673h31.273v58.919
		c-9.185,2.223-16.074,11.053-16.074,21.609c0,12.235,9.224,22.189,20.561,22.189s20.555-9.954,20.555-22.189
		c0-9.315-5.376-17.271-12.941-20.558v-59.971h29.418v17.183c-8.808,2.5-15.345,11.083-15.345,21.355
		c0,12.235,9.215,22.189,20.552,22.189s20.558-9.954,20.558-22.189c0-9.599-5.722-17.732-13.672-20.806v-29.837h-41.511V83.46
		c6.18,2.875,13.16,4.472,20.374,4.472c9.854,0,19.459-2.947,27.054-8.302C187.025,62.137,205,10.902,205.757,8.727L208.783,0
		L199.592,0.703z M64.711,198.826c-4.667,0-8.449-4.527-8.449-10.084c0-5.556,3.794-10.072,8.449-10.072
		c4.667,0,8.45,4.517,8.45,10.072C73.161,194.299,69.377,198.826,64.711,198.826z M107.183,240.816
		c-4.667,0-8.449-4.516-8.449-10.072c0-5.556,3.795-10.084,8.449-10.084c4.655,0,8.45,4.528,8.45,10.084
		C115.632,236.301,111.855,240.816,107.183,240.816z M149.433,198.826c-4.663,0-8.446-4.527-8.446-10.084
		c0-5.556,3.789-10.072,8.446-10.072c4.67,0,8.453,4.517,8.453,10.072C157.886,194.299,154.097,198.826,149.433,198.826z
		 M155.249,69.726c-5.567,3.928-12.696,6.088-20.067,6.088c-5.42,0-10.568-1.265-15.137-3.381l30.523-26.646l-7.944-9.121
		l-32.536,28.387c-3.795-4.466-5.742-9.726-5.296-15.126c0.52-6.445,4.164-12.359,10.267-16.656
		c16.677-11.753,57.231-17.481,75.844-19.556C184.809,28.75,171.232,58.469,155.249,69.726z"/>
</g>
</svg>